<?xml version="1.0" encoding="UTF-8"?>
<svg xmlns="http://www.w3.org/2000/svg" xmlns:xlink="http://www.w3.org/1999/xlink" viewBox="0 0 100 100" width="100px" height="100px">
<g id="surface16162263">
<path style=" stroke:none;fill-rule:nonzero;fill:rgb(52.941179%,35.294119%,23.921569%);fill-opacity:1;" d="M 20 22 C 16.144531 22 13 25.144531 13 29 L 13 71 C 13 74.855469 16.144531 78 20 78 L 80 78 C 83.855469 78 87 74.855469 87 71 L 87 29 C 87 25.144531 83.855469 22 80 22 Z M 20 24 L 80 24 C 82.765625 24 84.988281 26.214844 85 28.980469 C 84.996094 30.410156 84.3125 31.75 83.160156 32.59375 L 50 56.882812 L 16.839844 32.59375 C 15.6875 31.75 15.003906 30.410156 15 28.980469 C 15.007812 27.015625 16.144531 25.34375 17.792969 24.53125 L 49.707031 47.90625 C 49.878906 48.03125 50.121094 48.03125 50.296875 47.90625 L 66.679688 35.90625 C 66.902344 35.742188 66.953125 35.429688 66.789062 35.207031 C 66.625 34.980469 66.3125 34.933594 66.089844 35.097656 L 50 46.882812 L 18.925781 24.121094 C 19.273438 24.046875 19.628906 24 20 24 Z M 76.519531 27.585938 C 76.40625 27.585938 76.292969 27.621094 76.207031 27.6875 L 74.207031 29.152344 C 74.054688 29.253906 73.96875 29.433594 73.984375 29.613281 C 74.003906 29.796875 74.121094 29.957031 74.289062 30.027344 C 74.457031 30.097656 74.652344 30.074219 74.796875 29.957031 L 76.796875 28.496094 C 76.972656 28.371094 77.046875 28.148438 76.984375 27.941406 C 76.921875 27.734375 76.734375 27.59375 76.519531 27.585938 Z M 72.519531 30.515625 C 72.5 30.515625 72.484375 30.515625 72.464844 30.515625 C 72.371094 30.523438 72.28125 30.558594 72.207031 30.617188 L 68.207031 33.546875 C 68.054688 33.648438 67.96875 33.828125 67.984375 34.007812 C 68.003906 34.191406 68.121094 34.351562 68.289062 34.421875 C 68.457031 34.492188 68.652344 34.46875 68.796875 34.351562 L 72.796875 31.421875 C 72.972656 31.300781 73.046875 31.074219 72.984375 30.871094 C 72.921875 30.664062 72.734375 30.519531 72.519531 30.515625 Z M 15 32.117188 C 15.339844 32.601562 15.757812 33.039062 16.25 33.398438 C 16.25 33.402344 16.25 33.402344 16.25 33.402344 L 49.707031 57.902344 C 49.878906 58.03125 50.121094 58.03125 50.296875 57.902344 L 83.75 33.402344 C 83.75 33.402344 83.75 33.402344 83.75 33.398438 C 84.242188 33.039062 84.660156 32.601562 85 32.117188 L 85 71 C 85 73.773438 82.773438 76 80 76 L 20 76 C 17.226562 76 15 73.773438 15 71 Z M 22.492188 39.992188 C 22.359375 39.996094 22.234375 40.050781 22.140625 40.144531 C 22.046875 40.238281 21.996094 40.367188 22 40.5 L 22 73.5 C 21.996094 73.679688 22.09375 73.847656 22.246094 73.9375 C 22.402344 74.03125 22.597656 74.03125 22.753906 73.9375 C 22.90625 73.847656 23.003906 73.679688 23 73.5 L 23 40.5 C 23.003906 40.363281 22.949219 40.234375 22.855469 40.136719 C 22.757812 40.042969 22.628906 39.988281 22.492188 39.992188 Z M 77.492188 39.992188 C 77.359375 39.996094 77.234375 40.050781 77.140625 40.144531 C 77.046875 40.238281 76.996094 40.367188 77 40.5 L 77 61.5 C 76.996094 61.679688 77.09375 61.847656 77.246094 61.9375 C 77.402344 62.03125 77.597656 62.03125 77.753906 61.9375 C 77.90625 61.847656 78.003906 61.679688 78 61.5 L 78 40.5 C 78.003906 40.363281 77.949219 40.234375 77.855469 40.136719 C 77.757812 40.042969 77.628906 39.988281 77.492188 39.992188 Z M 77.492188 63.992188 C 77.359375 63.996094 77.234375 64.050781 77.140625 64.144531 C 77.046875 64.238281 76.996094 64.367188 77 64.5 L 77 69.5 C 76.996094 69.679688 77.09375 69.847656 77.246094 69.9375 C 77.402344 70.03125 77.597656 70.03125 77.753906 69.9375 C 77.90625 69.847656 78.003906 69.679688 78 69.5 L 78 64.5 C 78.003906 64.363281 77.949219 64.234375 77.855469 64.136719 C 77.757812 64.042969 77.628906 63.988281 77.492188 63.992188 Z M 77.492188 71.992188 C 77.359375 71.996094 77.234375 72.050781 77.140625 72.144531 C 77.046875 72.238281 76.996094 72.367188 77 72.5 L 77 73.5 C 76.996094 73.679688 77.09375 73.847656 77.246094 73.9375 C 77.402344 74.03125 77.597656 74.03125 77.753906 73.9375 C 77.90625 73.847656 78.003906 73.679688 78 73.5 L 78 72.5 C 78.003906 72.363281 77.949219 72.234375 77.855469 72.136719 C 77.757812 72.042969 77.628906 71.988281 77.492188 71.992188 Z M 77.492188 71.992188 "/>
</g>
</svg>
