<?xml version="1.0" encoding="UTF-8"?>
<svg xmlns="http://www.w3.org/2000/svg" xmlns:xlink="http://www.w3.org/1999/xlink" viewBox="0 0 100 100" width="100px" height="100px">
<g id="surface16172534">
<path style=" stroke:none;fill-rule:nonzero;fill:rgb(52.941179%,35.294119%,23.921569%);fill-opacity:1;" d="M 50 8 C 33.445312 8 20 21.445312 20 38 C 20 48.847656 25.6875 57.085938 31.714844 64.746094 C 37.742188 72.402344 44.097656 79.554688 46.023438 88.214844 C 46.230469 89.15625 46.621094 90.0625 47.273438 90.777344 C 47.925781 91.496094 48.894531 92 50 92 C 51.105469 92 52.074219 91.496094 52.726562 90.777344 C 53.378906 90.0625 53.769531 89.15625 53.976562 88.214844 C 55.902344 79.554688 62.257812 72.402344 68.285156 64.746094 C 74.3125 57.085938 80 48.847656 80 38 C 80 21.445312 66.554688 8 50 8 Z M 50 10 C 52.453125 10 54.828125 10.316406 57.09375 10.90625 L 41.277344 29.730469 L 29.035156 19.441406 C 34.160156 13.652344 41.648438 10 50 10 Z M 58.148438 11.207031 C 65.503906 13.4375 71.570312 18.613281 74.988281 25.367188 L 61.496094 41.417969 C 61.820312 40.332031 62 39.1875 62 38 C 62 31.382812 56.617188 26 50 26 C 48.074219 26 46.257812 26.46875 44.640625 27.277344 Z M 28.378906 20.203125 L 40.628906 30.496094 L 24.480469 49.707031 C 22.949219 46.117188 22 42.273438 22 38 C 22 31.238281 24.394531 25.039062 28.378906 20.203125 Z M 75.464844 26.355469 C 77.085938 29.898438 78 33.839844 78 38 C 78 48.152344 72.6875 55.914062 66.714844 63.503906 C 60.742188 71.097656 54.097656 78.445312 52.023438 87.785156 C 51.871094 88.460938 51.589844 89.054688 51.246094 89.433594 C 50.902344 89.8125 50.550781 90 50 90 C 49.449219 90 49.097656 89.8125 48.753906 89.433594 C 48.410156 89.054688 48.128906 88.460938 47.976562 87.785156 C 46.511719 81.199219 42.769531 75.609375 38.601562 70.21875 Z M 50 28 C 55.535156 28 60 32.464844 60 38 C 60 43.535156 55.535156 48 50 48 C 44.464844 48 40 43.535156 40 38 C 40 32.464844 44.464844 28 50 28 Z M 74.195312 33.585938 C 74.046875 33.582031 73.902344 33.644531 73.804688 33.761719 C 73.707031 33.875 73.664062 34.023438 73.691406 34.171875 C 73.761719 34.617188 73.808594 35.078125 73.859375 35.550781 C 73.871094 35.734375 73.980469 35.894531 74.148438 35.972656 C 74.3125 36.050781 74.507812 36.03125 74.65625 35.921875 C 74.804688 35.8125 74.878906 35.628906 74.855469 35.449219 C 74.804688 34.980469 74.757812 34.496094 74.679688 34.015625 C 74.644531 33.773438 74.4375 33.59375 74.195312 33.585938 Z M 38.503906 34.582031 C 38.179688 35.667969 38 36.8125 38 38 C 38 44.617188 43.382812 50 50 50 C 51.929688 50 53.746094 49.53125 55.359375 48.71875 L 37.976562 69.40625 C 36.425781 67.429688 34.835938 65.476562 33.285156 63.507812 C 30.0625 59.414062 27.042969 55.265625 24.9375 50.726562 Z M 74.484375 37.992188 C 74.351562 37.992188 74.222656 38.042969 74.128906 38.136719 C 74.035156 38.230469 73.980469 38.355469 73.980469 38.492188 C 73.945312 40.1875 73.75 41.820312 73.394531 43.390625 C 73.347656 43.570312 73.398438 43.757812 73.535156 43.886719 C 73.667969 44.015625 73.859375 44.058594 74.035156 44 C 74.210938 43.941406 74.339844 43.792969 74.371094 43.609375 C 74.742188 41.972656 74.945312 40.273438 74.980469 38.507812 C 74.984375 38.375 74.933594 38.242188 74.839844 38.144531 C 74.75 38.046875 74.621094 37.992188 74.484375 37.992188 Z M 72.230469 47.996094 C 72.03125 47.996094 71.847656 48.117188 71.769531 48.300781 C 69.433594 53.695312 65.519531 58.609375 61.429688 63.722656 C 59.484375 66.160156 57.519531 68.632812 55.6875 71.210938 C 55.574219 71.355469 55.546875 71.550781 55.621094 71.722656 C 55.695312 71.890625 55.855469 72.003906 56.042969 72.019531 C 56.226562 72.035156 56.402344 71.945312 56.5 71.789062 C 58.3125 69.242188 60.265625 66.78125 62.210938 64.347656 C 66.300781 59.230469 70.277344 54.265625 72.6875 48.699219 C 72.757812 48.542969 72.746094 48.363281 72.652344 48.222656 C 72.558594 48.078125 72.402344 47.992188 72.230469 47.996094 Z M 72.230469 47.996094 "/>
</g>
</svg>
