<?xml version="1.0" encoding="UTF-8"?>
<svg xmlns="http://www.w3.org/2000/svg" xmlns:xlink="http://www.w3.org/1999/xlink" viewBox="0 0 100 100" width="100px" height="100px">
<g id="surface16200979">
<path style=" stroke:none;fill-rule:nonzero;fill:rgb(52.941179%,35.294119%,23.921569%);fill-opacity:1;" d="M 31 17.988281 C 23.820312 17.988281 18 23.808594 18 30.988281 L 18 69.988281 C 18 77.167969 23.820312 82.988281 31 82.988281 L 70 82.988281 C 77.179688 82.988281 83 77.167969 83 69.988281 L 83 30.988281 C 83 23.808594 77.179688 17.988281 70 17.988281 Z M 31 19.988281 L 70 19.988281 C 76.074219 19.988281 81 24.914062 81 30.988281 L 81 69.988281 C 81 76.0625 76.074219 80.988281 70 80.988281 L 31 80.988281 C 24.925781 80.988281 20 76.0625 20 69.988281 L 20 30.988281 C 20 24.914062 24.925781 19.988281 31 19.988281 Z M 33.835938 22.988281 C 27.851562 22.988281 23 27.839844 23 33.824219 L 23 67.152344 C 23 73.136719 27.851562 77.988281 33.835938 77.988281 L 67.160156 77.988281 C 73.148438 77.988281 78 73.136719 78 67.152344 L 78 48.488281 C 78 48.210938 77.777344 47.988281 77.5 47.988281 C 77.222656 47.988281 77 48.210938 77 48.488281 L 77 67.152344 C 77 72.582031 72.59375 76.988281 67.160156 76.988281 L 33.835938 76.988281 C 28.40625 76.988281 24 72.582031 24 67.152344 L 24 33.824219 C 24 28.390625 28.40625 23.988281 33.835938 23.988281 L 67.5 23.988281 C 67.777344 23.988281 68 23.765625 68 23.488281 C 68 23.210938 67.777344 22.988281 67.5 22.988281 Z M 36.539062 30.015625 C 36.261719 30.019531 35.984375 30.070312 35.714844 30.167969 C 34.40625 30.65625 32.96875 31.273438 31.855469 32.503906 C 30.742188 33.734375 30 35.566406 30 38.316406 C 30 41.425781 31.613281 44.851562 33.976562 48.304688 C 36.339844 51.761719 39.480469 55.246094 42.628906 58.394531 L 42.632812 58.402344 L 42.644531 58.40625 C 45.796875 61.558594 49.359375 64.691406 52.878906 67.050781 C 56.394531 69.410156 59.859375 71.011719 62.902344 71.011719 C 65.476562 71.011719 67.257812 70.273438 68.488281 69.167969 C 69.714844 68.066406 70.375 66.640625 70.867188 65.320312 C 71.265625 64.25 70.882812 63.03125 69.925781 62.394531 C 68.410156 61.386719 65.277344 59.488281 63.21875 58.246094 C 61.855469 57.429688 60.152344 57.433594 58.792969 58.257812 L 58.238281 58.59375 C 57.039062 59.320312 55.539062 59.214844 54.457031 58.328125 C 52.6875 56.882812 50.140625 54.726562 48.226562 52.8125 C 46.34375 50.933594 44.347656 48.496094 43.003906 46.78125 C 42.140625 45.6875 42.046875 44.167969 42.757812 42.964844 L 43.058594 42.457031 C 43.898438 41.035156 43.875 39.257812 42.988281 37.863281 C 41.65625 35.773438 39.636719 32.605469 38.640625 31.109375 C 38.324219 30.632812 37.859375 30.296875 37.34375 30.132812 C 37.082031 30.050781 36.8125 30.011719 36.539062 30.015625 Z M 36.558594 31.011719 C 36.722656 31.007812 36.882812 31.03125 37.035156 31.078125 C 37.34375 31.175781 37.617188 31.378906 37.808594 31.664062 C 38.789062 33.140625 40.8125 36.3125 42.144531 38.402344 C 42.828125 39.480469 42.851562 40.847656 42.199219 41.945312 L 41.894531 42.457031 C 40.976562 44.011719 41.097656 45.980469 42.214844 47.398438 C 43.570312 49.128906 45.582031 51.585938 47.515625 53.519531 C 49.480469 55.480469 52.042969 57.648438 53.820312 59.101562 C 55.230469 60.253906 57.203125 60.394531 58.753906 59.449219 L 59.3125 59.113281 C 60.359375 58.476562 61.65625 58.476562 62.703125 59.105469 C 64.757812 60.34375 67.90625 62.253906 69.371094 63.226562 C 69.949219 63.609375 70.171875 64.320312 69.925781 64.96875 C 69.925781 64.972656 69.925781 64.972656 69.925781 64.972656 C 69.457031 66.234375 68.855469 67.492188 67.816406 68.425781 C 66.777344 69.363281 65.289062 70.011719 62.898438 70.011719 C 60.222656 70.011719 56.871094 68.523438 53.433594 66.21875 C 49.996094 63.917969 46.46875 60.820312 43.347656 57.699219 L 43.339844 57.695312 L 43.335938 57.6875 C 40.214844 54.5625 37.113281 51.117188 34.800781 47.742188 C 32.492188 44.367188 31 41.070312 31 38.316406 C 31 35.742188 31.660156 34.210938 32.597656 33.175781 C 33.535156 32.140625 34.789062 31.582031 36.0625 31.105469 C 36.226562 31.046875 36.394531 31.015625 36.558594 31.011719 Z M 77.5 36.566406 C 77.222656 36.566406 77 36.789062 77 37.066406 L 77 39.066406 C 77 39.34375 77.222656 39.566406 77.5 39.566406 C 77.777344 39.566406 78 39.34375 78 39.066406 L 78 37.066406 C 78 36.789062 77.777344 36.566406 77.5 36.566406 Z M 77.5 40.566406 C 77.222656 40.566406 77 40.789062 77 41.066406 L 77 45.066406 C 77 45.34375 77.222656 45.566406 77.5 45.566406 C 77.777344 45.566406 78 45.34375 78 45.066406 L 78 41.066406 C 78 40.789062 77.777344 40.566406 77.5 40.566406 Z M 77.5 40.566406 "/>
</g>
</svg>
